<svg width="60" height="13" viewBox="0 0 60 13" fill="none" xmlns="http://www.w3.org/2000/svg">
<path d="M6.20663 9.44091L8.57101 10.9387C8.87326 11.1299 9.24826 10.8453 9.15863 10.4924L8.47576 7.80553C8.45647 7.73069 8.45869 7.65192 8.48217 7.57829C8.50566 7.50465 8.54945 7.43914 8.60851 7.38928L10.7288 5.62491C11.007 5.39316 10.8638 4.93078 10.5056 4.90753L7.73701 4.72753C7.66246 4.72224 7.59096 4.69589 7.53081 4.65154C7.47066 4.6072 7.42435 4.54668 7.39726 4.47703L6.36451 1.87678C6.33638 1.80288 6.28647 1.73928 6.22137 1.6944C6.15627 1.64952 6.07907 1.62549 6.00001 1.62549C5.92094 1.62549 5.84374 1.64952 5.77864 1.6944C5.71354 1.73928 5.66363 1.80288 5.63551 1.87678L4.60276 4.47703C4.57572 4.54675 4.52943 4.60734 4.46928 4.65176C4.40913 4.69618 4.33759 4.72259 4.26301 4.72791L1.49438 4.90791C1.13663 4.93078 0.992631 5.39316 1.27126 5.62491L3.39151 7.38966C3.4505 7.43948 3.49424 7.50493 3.51772 7.57849C3.54121 7.65205 3.54347 7.73074 3.52426 7.80553L2.89126 10.2974C2.78363 10.7208 3.23401 11.0624 3.59626 10.8325L5.79376 9.44091C5.85552 9.40164 5.92719 9.38078 6.00038 9.38078C6.07357 9.38078 6.14524 9.40164 6.20701 9.44091H6.20663Z" fill="#FF8A00"/>
<path d="M18.2066 9.44091L20.571 10.9387C20.8733 11.1299 21.2483 10.8453 21.1586 10.4924L20.4758 7.80553C20.4565 7.73069 20.4587 7.65192 20.4822 7.57829C20.5057 7.50465 20.5494 7.43914 20.6085 7.38928L22.7288 5.62491C23.007 5.39316 22.8638 4.93078 22.5056 4.90753L19.737 4.72753C19.6625 4.72224 19.591 4.69589 19.5308 4.65154C19.4707 4.6072 19.4243 4.54668 19.3973 4.47703L18.3645 1.87678C18.3364 1.80288 18.2865 1.73928 18.2214 1.6944C18.1563 1.64952 18.0791 1.62549 18 1.62549C17.9209 1.62549 17.8437 1.64952 17.7786 1.6944C17.7135 1.73928 17.6636 1.80288 17.6355 1.87678L16.6028 4.47703C16.5757 4.54675 16.5294 4.60734 16.4693 4.65176C16.4091 4.69618 16.3376 4.72259 16.263 4.72791L13.4944 4.90791C13.1366 4.93078 12.9926 5.39316 13.2713 5.62491L15.3915 7.38966C15.4505 7.43948 15.4942 7.50493 15.5177 7.57849C15.5412 7.65205 15.5435 7.73074 15.5243 7.80553L14.8913 10.2974C14.7836 10.7208 15.234 11.0624 15.5963 10.8325L17.7938 9.44091C17.8555 9.40164 17.9272 9.38078 18.0004 9.38078C18.0736 9.38078 18.1452 9.40164 18.207 9.44091H18.2066Z" fill="#FF8A00"/>
<path d="M30.2066 9.44091L32.571 10.9387C32.8733 11.1299 33.2483 10.8453 33.1586 10.4924L32.4758 7.80553C32.4565 7.73069 32.4587 7.65192 32.4822 7.57829C32.5057 7.50465 32.5494 7.43914 32.6085 7.38928L34.7288 5.62491C35.007 5.39316 34.8638 4.93078 34.5056 4.90753L31.737 4.72753C31.6625 4.72224 31.591 4.69589 31.5308 4.65154C31.4707 4.6072 31.4243 4.54668 31.3973 4.47703L30.3645 1.87678C30.3364 1.80288 30.2865 1.73928 30.2214 1.6944C30.1563 1.64952 30.0791 1.62549 30 1.62549C29.9209 1.62549 29.8437 1.64952 29.7786 1.6944C29.7135 1.73928 29.6636 1.80288 29.6355 1.87678L28.6028 4.47703C28.5757 4.54675 28.5294 4.60734 28.4693 4.65176C28.4091 4.69618 28.3376 4.72259 28.263 4.72791L25.4944 4.90791C25.1366 4.93078 24.9926 5.39316 25.2713 5.62491L27.3915 7.38966C27.4505 7.43948 27.4942 7.50493 27.5177 7.57849C27.5412 7.65205 27.5435 7.73074 27.5243 7.80553L26.8913 10.2974C26.7836 10.7208 27.234 11.0624 27.5963 10.8325L29.7938 9.44091C29.8555 9.40164 29.9272 9.38078 30.0004 9.38078C30.0736 9.38078 30.1452 9.40164 30.207 9.44091H30.2066Z" fill="#FF8A00"/>
<path d="M42.2066 9.44091L44.571 10.9387C44.8733 11.1299 45.2483 10.8453 45.1586 10.4924L44.4758 7.80553C44.4565 7.73069 44.4587 7.65192 44.4822 7.57829C44.5057 7.50465 44.5494 7.43914 44.6085 7.38928L46.7288 5.62491C47.007 5.39316 46.8638 4.93078 46.5056 4.90753L43.737 4.72753C43.6625 4.72224 43.591 4.69589 43.5308 4.65154C43.4707 4.6072 43.4243 4.54668 43.3973 4.47703L42.3645 1.87678C42.3364 1.80288 42.2865 1.73928 42.2214 1.6944C42.1563 1.64952 42.0791 1.62549 42 1.62549C41.9209 1.62549 41.8437 1.64952 41.7786 1.6944C41.7135 1.73928 41.6636 1.80288 41.6355 1.87678L40.6028 4.47703C40.5757 4.54675 40.5294 4.60734 40.4693 4.65176C40.4091 4.69618 40.3376 4.72259 40.263 4.72791L37.4944 4.90791C37.1366 4.93078 36.9926 5.39316 37.2713 5.62491L39.3915 7.38966C39.4505 7.43948 39.4942 7.50493 39.5177 7.57849C39.5412 7.65205 39.5435 7.73074 39.5243 7.80553L38.8913 10.2974C38.7836 10.7208 39.234 11.0624 39.5963 10.8325L41.7938 9.44091C41.8555 9.40164 41.9272 9.38078 42.0004 9.38078C42.0736 9.38078 42.1452 9.40164 42.207 9.44091H42.2066Z" fill="#FF8A00"/>
<path d="M54.2066 9.44091L56.571 10.9387C56.8733 11.1299 57.2483 10.8453 57.1586 10.4924L56.4758 7.80553C56.4565 7.73069 56.4587 7.65192 56.4822 7.57829C56.5057 7.50465 56.5494 7.43914 56.6085 7.38928L58.7288 5.62491C59.007 5.39316 58.8638 4.93078 58.5056 4.90753L55.737 4.72753C55.6625 4.72224 55.591 4.69589 55.5308 4.65154C55.4707 4.6072 55.4243 4.54668 55.3973 4.47703L54.3645 1.87678C54.3364 1.80288 54.2865 1.73928 54.2214 1.6944C54.1563 1.64952 54.0791 1.62549 54 1.62549C53.9209 1.62549 53.8437 1.64952 53.7786 1.6944C53.7135 1.73928 53.6636 1.80288 53.6355 1.87678L52.6028 4.47703C52.5757 4.54675 52.5294 4.60734 52.4693 4.65176C52.4091 4.69618 52.3376 4.72259 52.263 4.72791L49.4944 4.90791C49.1366 4.93078 48.9926 5.39316 49.2713 5.62491L51.3915 7.38966C51.4505 7.43948 51.4942 7.50493 51.5177 7.57849C51.5412 7.65205 51.5435 7.73074 51.5243 7.80553L50.8913 10.2974C50.7836 10.7208 51.234 11.0624 51.5963 10.8325L53.7938 9.44091C53.8555 9.40164 53.9272 9.38078 54.0004 9.38078C54.0736 9.38078 54.1452 9.40164 54.207 9.44091H54.2066Z" fill="#CCCCCC"/>
</svg>
